<svg xmlns="http://www.w3.org/2000/svg" width="17" height="17" viewBox="0 0 17 17">
  <g id="vuesax_bold_archive" data-name="vuesax/bold/archive" transform="translate(-172 -191)">
    <g id="archive" transform="translate(172 191)">
      <path id="Vector" d="M9.418,0H2.693A2.709,2.709,0,0,0,0,2.712v9.9c0,1.265.9,1.8,2,1.188l3.4-1.9a1.468,1.468,0,0,1,1.3,0l3.4,1.9c1.1.618,2,.084,2-1.188v-9.9A2.719,2.719,0,0,0,9.418,0ZM8.155,5.446a6.153,6.153,0,0,1-2.1.372,6.153,6.153,0,0,1-2.1-.372.528.528,0,0,1,.363-.991,5.108,5.108,0,0,0,3.481,0,.522.522,0,0,1,.67.316A.528.528,0,0,1,8.155,5.446Z" transform="translate(2.445 1.473)" fill="#f42331"/>
      <path id="Vector-2" data-name="Vector" d="M0,0H17V17H0Z" transform="translate(17 17) rotate(180)" fill="none" opacity="0"/>
    </g>
  </g>
</svg>
