<svg xmlns="http://www.w3.org/2000/svg" width="44" height="44" viewBox="0 0 44 44">
  <g id="consulting" transform="translate(-326 -153)">
    <g id="Rectangle_6638" data-name="Rectangle 6638" transform="translate(326 153)" fill="#fff" stroke="#ececec" stroke-width="1">
      <rect width="44" height="44" rx="9" stroke="none"/>
      <rect x="0.5" y="0.5" width="43" height="43" rx="8.5" fill="none"/>
    </g>
    <g id="vuesax_linear_profile" data-name="vuesax/linear/profile" transform="translate(228 -89)">
      <g id="profile">
        <path id="Vector" d="M4.6,8.87a1.818,1.818,0,0,0-.33,0,4.445,4.445,0,1,1,.33,0Z" transform="translate(115.56 254)" fill="none" stroke="#efb920" stroke-linecap="round" stroke-linejoin="round" stroke-width="1.5"/>
        <path id="Vector-2" data-name="Vector" d="M1.815,1.373c-2.42,1.62-2.42,4.26,0,5.87a9.766,9.766,0,0,0,10.01,0c2.42-1.62,2.42-4.26,0-5.87A9.812,9.812,0,0,0,1.815,1.373Z" transform="translate(113.345 265.188)" fill="none" stroke="#efb920" stroke-linecap="round" stroke-linejoin="round" stroke-width="1.5"/>
        <path id="Vector-3" data-name="Vector" d="M0,0H24V24H0Z" transform="translate(132 276) rotate(180)" fill="none" opacity="0"/>
      </g>
    </g>
  </g>
</svg>
