<svg xmlns="http://www.w3.org/2000/svg" width="17" height="17" viewBox="0 0 17 17">
  <g id="eye" transform="translate(-108 -188)">
    <g id="eye-2" data-name="eye" transform="translate(108 188)">
      <path id="Vector" d="M5.072,2.536A2.536,2.536,0,1,1,2.536,0,2.533,2.533,0,0,1,5.072,2.536Z" transform="translate(5.964 5.964)" fill="none" stroke="#8f8f8f" stroke-linecap="round" stroke-linejoin="round" stroke-width="1.2"/>
      <path id="Vector-2" data-name="Vector" d="M6.931,11.723c2.5,0,4.831-1.473,6.453-4.023a3.772,3.772,0,0,0,0-3.676C11.762,1.473,9.431,0,6.931,0S2.1,1.473.478,4.023a3.772,3.772,0,0,0,0,3.676C2.1,10.25,4.431,11.723,6.931,11.723Z" transform="translate(1.569 2.635)" fill="none" stroke="#8f8f8f" stroke-linecap="round" stroke-linejoin="round" stroke-width="1.2"/>
      <path id="Vector-3" data-name="Vector" d="M0,0H17V17H0Z" transform="translate(17 17) rotate(180)" fill="none" opacity="0"/>
    </g>
  </g>
</svg>
