<svg xmlns="http://www.w3.org/2000/svg" width="17" height="17" viewBox="0 0 17 17">
  <g id="folloe" transform="translate(-108 -188)">
    <g id="star" transform="translate(108 188)">
      <path id="Vector" d="M8.227,1,9.462,3.472a1.524,1.524,0,0,0,1,.736L12.7,4.58c1.431.238,1.768,1.276.737,2.3l-1.74,1.739a1.522,1.522,0,0,0-.365,1.269l.5,2.152c.393,1.7-.512,2.363-2.02,1.472l-2.1-1.241a1.517,1.517,0,0,0-1.389,0l-2.1,1.241c-1.5.89-2.413.224-2.02-1.472l.5-2.152a1.522,1.522,0,0,0-.365-1.269L.6,6.88C-.429,5.856-.1,4.818,1.332,4.58L3.57,4.208a1.528,1.528,0,0,0,.989-.736L5.793,1C6.467-.335,7.561-.335,8.227,1Z" transform="translate(1.486 1.543)" fill="none" stroke="#8f8f8f" stroke-linecap="round" stroke-linejoin="round" stroke-width="1.2"/>
      <path id="Vector-2" data-name="Vector" d="M0,0H17V17H0Z" fill="none" opacity="0"/>
    </g>
  </g>
</svg>
