<svg id="home-2" xmlns="http://www.w3.org/2000/svg" width="19.527" height="19.527" viewBox="0 0 19.527 19.527">
  <path id="Vector" d="M5.712.669,1.326,4.087A3.872,3.872,0,0,0,0,6.788v6.029A3.438,3.438,0,0,0,3.425,16.25h9.422a3.436,3.436,0,0,0,3.425-3.425V6.9a3.843,3.843,0,0,0-1.465-2.807L9.78.572A3.651,3.651,0,0,0,5.712.669Z" transform="translate(1.627 1.641)" fill="none" stroke="#000" stroke-linecap="round" stroke-linejoin="round" stroke-width="1.2"/>
  <path id="Vector-2" data-name="Vector" d="M0,2.441V0" transform="translate(9.764 12.196)" fill="none" stroke="#000" stroke-linecap="round" stroke-linejoin="round" stroke-width="1.2"/>
  <path id="Vector-3" data-name="Vector" d="M0,0H19.527V19.527H0Z" transform="translate(0 0)" fill="none" opacity="0"/>
</svg>
