<svg xmlns="http://www.w3.org/2000/svg" width="14.203" height="10.08" viewBox="0 0 14.203 10.08">
  <g id="svgexport-17_2_" data-name="svgexport-17 (2)" transform="translate(-8 -80)">
    <path id="Path_1" data-name="Path 1" d="M21.974,87.56h-.229V85.727a.918.918,0,0,0-.916-.916V80.916A.918.918,0,0,0,19.912,80H10.291a.918.918,0,0,0-.916.916v3.894a.918.918,0,0,0-.916.916V87.56H8.229A.229.229,0,0,0,8,87.789v.916a.229.229,0,0,0,.229.229h.229v.916a.229.229,0,0,0,.229.229h.687A.229.229,0,0,0,9.6,89.9l.192-.961h10.62l.192.961a.229.229,0,0,0,.225.184h.687a.229.229,0,0,0,.229-.229v-.916h.229a.229.229,0,0,0,.229-.229v-.916A.229.229,0,0,0,21.974,87.56ZM9.833,80.916a.459.459,0,0,1,.458-.458h9.621a.459.459,0,0,1,.458.458v3.894h-.458v-.916A.918.918,0,0,0,19,82.978H16.247a.918.918,0,0,0-.916.916v.916h-.458v-.916a.918.918,0,0,0-.916-.916H11.207a.918.918,0,0,0-.916.916v.916H9.833Zm9.621,2.978v.916H15.789v-.916a.459.459,0,0,1,.458-.458H19A.459.459,0,0,1,19.454,83.894Zm-5.04,0v.916H10.749v-.916a.459.459,0,0,1,.458-.458h2.749A.459.459,0,0,1,14.414,83.894Zm-5.5,1.833a.459.459,0,0,1,.458-.458H20.829a.459.459,0,0,1,.458.458V87.56H8.916Zm.27,3.894h-.27v-.687h.408Zm12.1,0h-.27l-.137-.687h.408Zm.458-1.145H8.458v-.458H21.745Z"/>
  </g>
</svg>
