<svg id="svgexport-17_3_" data-name="svgexport-17 (3)" xmlns="http://www.w3.org/2000/svg" width="12.211" height="12.489" viewBox="0 0 12.211 12.489">
  <path id="Path_2" data-name="Path 2" d="M9.436,261.273H2.775A2.779,2.779,0,0,1,0,258.5V256H12.211v2.5A2.779,2.779,0,0,1,9.436,261.273ZM.555,256.555V258.5a2.222,2.222,0,0,0,2.22,2.22H9.436a2.222,2.222,0,0,0,2.22-2.22v-1.943Zm0,0" transform="translate(0 -249.339)"/>
  <path id="Path_3" data-name="Path 3" d="M65.665,11.656h.555v.833h-.555Zm5,0h.555v.833h-.555ZM64.555,6.938H64v-5a1.943,1.943,0,1,1,3.885,0V2.22H67.33V1.943a1.388,1.388,0,1,0-2.775,0Zm0,0" transform="translate(-62.335)"/>
  <path id="Path_4" data-name="Path 4" d="M131.885,77.166H128v-.555a1.943,1.943,0,0,1,3.885,0Zm-3.33-.555h2.775a1.388,1.388,0,0,0-2.775,0Zm0,0" transform="translate(-124.67 -72.725)"/>
</svg>
