<svg xmlns="http://www.w3.org/2000/svg" width="9.5" height="9.5" viewBox="0 0 9.5 9.5">
  <g id="svgexport-17_4_" data-name="svgexport-17 (4)" transform="translate(-1 -1)">
    <g id="Layer_2" data-name="Layer 2" transform="translate(1 1)">
      <path id="Path_5" data-name="Path 5" d="M8.689,1H2.811A1.814,1.814,0,0,0,1,2.811V8.689A1.814,1.814,0,0,0,2.811,10.5H8.689A1.814,1.814,0,0,0,10.5,8.689V2.811A1.814,1.814,0,0,0,8.689,1ZM9.867,8.689A1.181,1.181,0,0,1,8.689,9.867H2.811A1.181,1.181,0,0,1,1.633,8.689V2.811A1.181,1.181,0,0,1,2.811,1.633H8.689A1.181,1.181,0,0,1,9.867,2.811Z" transform="translate(-1 -1)"/>
      <path id="Path_6" data-name="Path 6" d="M12.017,9.749a.317.317,0,0,0-.317.317v1.188L7.08,6.633H8.267a.317.317,0,0,0,0-.633H6.218A.219.219,0,0,0,6,6.218V8.267a.317.317,0,0,0,.633,0V7.08l4.62,4.62H10.066a.317.317,0,1,0,0,.633h2.049a.218.218,0,0,0,.218-.218V10.066A.317.317,0,0,0,12.017,9.749Z" transform="translate(-4.417 -4.417)"/>
    </g>
  </g>
</svg>
