<svg xmlns="http://www.w3.org/2000/svg" width="16" height="16" viewBox="0 0 16 16">
  <g id="vuesax_linear_note" data-name="vuesax/linear/note" transform="translate(-172 -316)">
    <g id="note" transform="translate(172 316)">
      <path id="Vector" d="M0,0V2" transform="translate(5.333 1.333)" fill="none" stroke="#c4c4c4" stroke-linecap="round" stroke-linejoin="round" stroke-width="1.2"/>
      <path id="Vector-2" data-name="Vector" d="M0,0V2" transform="translate(10.667 1.333)" fill="none" stroke="#c4c4c4" stroke-linecap="round" stroke-linejoin="round" stroke-width="1.2"/>
      <path id="Vector-3" data-name="Vector" d="M0,0H5.333" transform="translate(4.667 8.667)" fill="none" stroke="#c4c4c4" stroke-linecap="round" stroke-linejoin="round" stroke-width="1.2"/>
      <path id="Vector-4" data-name="Vector" d="M0,0H3.333" transform="translate(4.667 11.333)" fill="none" stroke="#c4c4c4" stroke-linecap="round" stroke-linejoin="round" stroke-width="1.2"/>
      <path id="Vector-5" data-name="Vector" d="M8.667,0C10.887.12,12,.967,12,4.1V8.22c0,2.747-.667,4.12-4,4.12H4c-3.333,0-4-1.373-4-4.12V4.1C0,.967,1.113.127,3.333,0Z" transform="translate(2 2.333)" fill="none" stroke="#c4c4c4" stroke-linecap="round" stroke-linejoin="round" stroke-width="1.2"/>
      <path id="Vector-6" data-name="Vector" d="M0,0H16V16H0Z" fill="none" opacity="0"/>
    </g>
  </g>
</svg>
