<svg id="phine" xmlns="http://www.w3.org/2000/svg" width="17.65" height="17.65" viewBox="0 0 17.65 17.65">
  <path id="Path_37" data-name="Path 37" d="M15.063,2.583a8.825,8.825,0,1,0,0,12.48,8.825,8.825,0,0,0,0-12.48Zm-1.7,9.709h0v0l-.447.444a2.353,2.353,0,0,1-2.221.635,7.819,7.819,0,0,1-2.271-1.018,10.492,10.492,0,0,1-1.791-1.444A10.573,10.573,0,0,1,5.294,9.284,8.236,8.236,0,0,1,4.288,7.249a2.353,2.353,0,0,1,.588-2.4L5.4,4.322a.374.374,0,0,1,.528,0h0L7.583,5.975a.374.374,0,0,1,0,.528h0l-.971.971A.791.791,0,0,0,6.53,8.5,11.353,11.353,0,0,0,7.692,9.861a11.283,11.283,0,0,0,1.53,1.285.8.8,0,0,0,1.018-.088l.938-.953a.374.374,0,0,1,.528,0h0l1.656,1.659a.373.373,0,0,1,0,.528Z" transform="translate(0 0)" fill="#44a0fc"/>
</svg>
