<svg xmlns="http://www.w3.org/2000/svg" width="18" height="18" viewBox="0 0 18 18">
  <g id="profile" transform="translate(-86 -566.9)">
    <circle id="Ellipse_5" data-name="Ellipse 5" cx="9" cy="9" r="9" transform="translate(86 566.9)" fill="#eecc51"/>
    <g id="vuesax_linear_profile" data-name="vuesax/linear/profile" transform="translate(88.941 569.922)">
      <g id="profile-2" data-name="profile">
        <path id="Vector" d="M2.326,4.486a.919.919,0,0,0-.167,0,2.248,2.248,0,1,1,.167,0Z" transform="translate(3.823 1.011)" fill="none" stroke="#fff" stroke-linecap="round" stroke-linejoin="round" stroke-width="0.8"/>
        <path id="Vector-2" data-name="Vector" d="M.918.694a1.659,1.659,0,0,0,0,2.969,4.939,4.939,0,0,0,5.062,0,1.659,1.659,0,0,0,0-2.969A4.962,4.962,0,0,0,.918.694Z" transform="translate(2.703 6.669)" fill="none" stroke="#fff" stroke-linecap="round" stroke-linejoin="round" stroke-width="0.8"/>
        <path id="Vector-3" data-name="Vector" d="M0,0H12.138V12.138H0Z" transform="translate(12.138 12.138) rotate(180)" fill="none" opacity="0"/>
      </g>
    </g>
  </g>
</svg>
