<svg xmlns="http://www.w3.org/2000/svg" width="20" height="20" viewBox="0 0 20 20">
  <g id="services" transform="translate(-172 -188)">
    <g id="category-2" transform="translate(172 188)">
      <path id="Vector" d="M2.483,6.622H4.139A2.195,2.195,0,0,0,6.622,4.139V2.483A2.195,2.195,0,0,0,4.139,0H2.483A2.195,2.195,0,0,0,0,2.483V4.139A2.195,2.195,0,0,0,2.483,6.622Z" transform="translate(11.722 1.656)" fill="none" stroke="#292d32" stroke-linecap="round" stroke-linejoin="round" stroke-width="1.2"/>
      <path id="Vector-2" data-name="Vector" d="M2.483,6.622H4.139A2.195,2.195,0,0,0,6.622,4.139V2.483A2.195,2.195,0,0,0,4.139,0H2.483A2.195,2.195,0,0,0,0,2.483V4.139A2.195,2.195,0,0,0,2.483,6.622Z" transform="translate(1.656 11.722)" fill="none" stroke="#292d32" stroke-linecap="round" stroke-linejoin="round" stroke-width="1.2"/>
      <path id="Vector-3" data-name="Vector" d="M6.622,3.311A3.311,3.311,0,1,1,3.311,0,3.311,3.311,0,0,1,6.622,3.311Z" transform="translate(1.656 1.656)" fill="none" stroke="#292d32" stroke-linecap="round" stroke-linejoin="round" stroke-width="1.2"/>
      <path id="Vector-4" data-name="Vector" d="M6.622,3.311A3.311,3.311,0,1,1,3.311,0,3.311,3.311,0,0,1,6.622,3.311Z" transform="translate(11.722 11.722)" fill="none" stroke="#292d32" stroke-linecap="round" stroke-linejoin="round" stroke-width="1.2"/>
      <path id="Vector-5" data-name="Vector" d="M0,0H20V20H0Z" fill="none" opacity="0"/>
    </g>
  </g>
</svg>
